<svg width="24" height="24" viewBox="0 0 24 24" xmlns="http://www.w3.org/2000/svg"><path d="M19 2a3 3 0 1 1-1.52 5.58l-2.9 2.9a2.98 2.98 0 0 1 0 3.04l2.9 2.9a3 3 0 1 1-1.06 1.06l-2.9-2.9a2.98 2.98 0 0 1-3.04 0l-2.9 2.9a3 3 0 1 1-1.06-1.06l2.9-2.9a2.98 2.98 0 0 1 0-3.04l-2.9-2.9a3 3 0 1 1 1.06-1.06l2.9 2.9a2.98 2.98 0 0 1 3.04 0l2.9-2.9A3 3 0 0 1 19 2ZM5 17.5a1.5 1.5 0 1 0 0 3 1.5 1.5 0 0 0 0-3Zm14 0a1.5 1.5 0 1 0 0 3 1.5 1.5 0 0 0 0-3Zm-7-7a1.5 1.5 0 1 0 0 3 1.5 1.5 0 0 0 0-3Zm-7-7a1.5 1.5 0 1 0 0 3 1.5 1.5 0 0 0 0-3Zm14 0a1.5 1.5 0 1 0 0 3 1.5 1.5 0 0 0 0-3Z"/></svg>