<svg width="24" height="24" viewBox="0 0 24 24" xmlns="http://www.w3.org/2000/svg"><path d="M2.22 2.22c.3-.3.77-.3 1.06 0l18.5 18.5a.75.75 0 0 1-1.06 1.06l-1.48-1.48c-.39.13-.8.2-1.24.2h-1.55a4 4 0 0 1-2.16-.64l-2.16-1.38a.25.25 0 0 0-.26 0L9.7 19.86a4 4 0 0 1-2.16.64H6a4 4 0 0 1-4-4V14h-.25a.75.75 0 0 1-.75-.75v-3.5c0-.41.34-.75.75-.75H2a4 4 0 0 1 2.31-3.63L2.22 3.29a.75.75 0 0 1 0-1.06Zm3.27 4.33A2.5 2.5 0 0 0 3.5 9v7.5A2.5 2.5 0 0 0 6 19h1.55c.48 0 .94-.14 1.35-.4l2.15-1.38a1.75 1.75 0 0 1 1.9 0l2.15 1.38c.4.26.87.4 1.35.4h1.49L5.49 6.55ZM14.25 3c.41 0 .75.34.75.75V5h3a4 4 0 0 1 4 4h.25c.41 0 .75.34.75.75v3.5c0 .41-.34.75-.75.75H22v2.5c0 .67-.17 1.3-.46 1.86L20.4 17.2c.07-.22.11-.46.11-.71V9A2.5 2.5 0 0 0 18 6.5H9.68L8.18 5H9V3.75c0-.41.34-.75.75-.75h4.5Zm-5 8.5a.75.75 0 0 1 0 1.5h-2.5a.75.75 0 0 1 0-1.5h2.5Zm8 0a.75.75 0 0 1 0 1.5h-1.07l-1.5-1.5h2.57Z"/></svg>