<svg width="24" height="24" viewBox="0 0 24 24" xmlns="http://www.w3.org/2000/svg"><path d="M19.75 4C20.99 4 22 5 22 6.25v11.5c0 1.24-1 2.25-2.25 2.25H4.25C3.01 20 2 19 2 17.75V6.25C2 5.01 3 4 4.25 4h15.5ZM3.5 17.75c0 .41.34.75.75.75h15.5c.41 0 .75-.34.75-.75V12H18v4.25a.75.75 0 0 1-1.5 0V12h-2v4.25a.75.75 0 0 1-1.5 0V12h-2v4.25a.75.75 0 0 1-1.5 0V12h-2v4.25a.75.75 0 0 1-1.5 0V12H3.5v5.75ZM4.25 5.5a.75.75 0 0 0-.75.75v4.25h17V6.25a.75.75 0 0 0-.75-.75H4.25ZM6 7a1 1 0 1 1 0 2 1 1 0 0 1 0-2Zm3.5 0a1 1 0 1 1 0 2 1 1 0 0 1 0-2Zm7.75 0a.75.75 0 0 1 0 1.5h-2.5a.75.75 0 0 1 0-1.5h2.5Z"/></svg>