<svg width="24" height="24" viewBox="0 0 24 24" xmlns="http://www.w3.org/2000/svg"><path d="M20.25 12a.75.75 0 0 1 .51 1.3L16 17.72v2.03c0 1.24-1 2.25-2.25 2.25h-3.5C9.01 22 8 21 8 19.75v-2.03L3.24 13.3a.75.75 0 0 1 .51-1.3h16.5ZM9.26 16.84c.15.14.24.34.24.55v2.36c0 .41.34.75.75.75h3.5c.41 0 .75-.34.75-.75v-2.36c0-.2.09-.4.24-.55l3.6-3.34H5.66l3.6 3.34Zm5-7.84c1.15 0 2.1.88 2.23 2h-1.53a.75.75 0 0 0-.7-.5h-4.5c-.34 0-.61.2-.71.5H7.52c.12-1.12 1.07-2 2.23-2h4.5ZM12 2a3 3 0 1 1 0 6 3 3 0 0 1 0-6Zm0 1.5a1.5 1.5 0 1 0 0 3 1.5 1.5 0 0 0 0-3Z"/></svg>