<svg width="24" height="24" viewBox="0 0 24 24" xmlns="http://www.w3.org/2000/svg"><path d="M2.22 2.22c.3-.3.77-.3 1.06 0L7.3 6.24l1.1 1.09 13.4 13.4a.75.75 0 0 1-1.08 1.05l-2.37-2.37-.27.8a1.15 1.15 0 0 1-2.16.02l-.33-1a1.31 1.31 0 0 0-.82-.83l-.99-.32A1.15 1.15 0 0 1 13 17a1.14 1.14 0 0 1 .77-1.08l.82-.27-2.91-2.91c-.1.16-.18.34-.24.52l-.61 1.87A1.44 1.44 0 0 1 9.5 16a1.44 1.44 0 0 1-1.36-.96l-.58-1.78a2.88 2.88 0 0 0-1.82-1.83l-1.76-.56a1.45 1.45 0 0 1-.91-1.81 1.44 1.44 0 0 1 .9-.93l1.77-.57c.18-.06.36-.14.52-.24L2.22 3.28a.75.75 0 0 1 0-1.06ZM15.74 16.8a2.8 2.8 0 0 1-.44.2 2.8 2.8 0 0 1 1.7 1.71c.06-.15.12-.3.2-.45l-1.46-1.46Zm1.23-3.8a1.14 1.14 0 0 1 1.09.76l.33 1.01a1.3 1.3 0 0 0 .82.82l.99.32a1.14 1.14 0 0 1 .61 1.72l-4.44-4.44c.18-.12.39-.18.6-.18ZM7.34 8.4a4.4 4.4 0 0 1-1.12.58l-1.6.52 1.6.51a4.4 4.4 0 0 1 1.71 1.06 4.37 4.37 0 0 1 1.06 1.72l.52 1.59.51-1.58c.14-.41.33-.8.57-1.14L7.34 8.4ZM9.46 3a1.45 1.45 0 0 1 1.37.96l.58 1.78a2.88 2.88 0 0 0 1.82 1.82l1.75.57a1.44 1.44 0 0 1 .06 2.74l-.75.24-1.19-1.19 1.28-.41-1.61-.53a4.38 4.38 0 0 1-1.26-.65l-.87-.88c-.29-.37-.5-.8-.66-1.24l-.51-1.59-.41 1.26-1.2-1.2.24-.7A1.45 1.45 0 0 1 9.46 3Z"/></svg>